<?xml version="1.0" encoding="utf-8"?>
<!-- Generator: Adobe Illustrator 16.0.0, SVG Export Plug-In . SVG Version: 6.00 Build 0)  -->
<!DOCTYPE svg PUBLIC "-//W3C//DTD SVG 1.1//EN" "http://www.w3.org/Graphics/SVG/1.1/DTD/svg11.dtd">
<svg version="1.1" id="Layer_1" xmlns:sketch="http://www.bohemiancoding.com/sketch/ns"
	 xmlns="http://www.w3.org/2000/svg" xmlns:xlink="http://www.w3.org/1999/xlink" x="0px" y="0px" width="762px" height="832px"
	 viewBox="-81 0 762 832" enable-background="new -81 0 762 832" xml:space="preserve">
<g id="plate" transform="translate(0.000000, 251.000000)" sketch:type="MSShapeGroup">
	<ellipse id="plate-outer" fill="#E9F1F4" cx="277.539" cy="451.383" rx="263.633" ry="114"/>
	<path id="plate-inner" fill="#D6E1E9" d="M278.521,545.696c134.183,0,242.959-44.621,242.959-99.663
		s-108.776-99.662-242.959-99.662s-242.959,44.62-242.959,99.662S144.339,545.696,278.521,545.696z"/>
</g>
<g id="handle" transform="translate(423.000000, 142.000000)" sketch:type="MSShapeGroup">
	<path id="handle-shadow" fill="#C0D5DC" d="M50.347,373.387l-1.555,8.446c0,0,21.774-16.053,42.012-16.053
		s25.671,24.694,25.671,28.596s0.631,34.748-20.867,62.854S48.47,487.15,48.47,487.15s-19.053,1.673-21.715-1.108
		s-2.381,4.141-2.381,4.141l5.043,1.054l18.368,1.033l24.683-5.543c0,0,18.803-11.304,24.161-19.184s19.531-30.052,19.531-30.052
		l7.651-27.639l-1.044-27.02l-9.042-18.868l-26.606-6.944l-24.759,9.912L50.347,373.387z"/>
	<path id="handle-light" fill="#E9F0F4" d="M54.41,351.395c0,0,19.459-11.547,32.11-13.275s29.659-0.696,42.659,17.39
		s13.228,37.345,13.228,44.159s-5.423,64.428-45.29,94.166s-83.839,22.933-83.839,22.933l10.673-26.726
		c0,0,23.453,4.095,41.582-3.315c14.201-5.805,27.586-15.448,40.258-35.729s19.932-39.799,14.455-67.426
		s-31.205-24.383-37.986-23.322s-28.336,9.678-32.154,15.282C50.105,375.53,50.861,372.519,54.41,351.395z"/>
</g>
<ellipse id="cup-shadow" sketch:type="MSShapeGroup" fill="#C0D4DC" cx="275.895" cy="705.445" rx="132.164" ry="54.758">
</ellipse>
<ellipse id="cup-inner" fill="#C0D6DC" cx="272.627" cy="429.428" rx="203.279" ry="83.502"/>
<path id="cup-coffee" fill="#D1A363" d="M272.376,512.93c112.268,0,184.157-32.608,200.926-70.734
	c-16.77-32.329-88.658-68.633-200.926-68.633S88.808,406.938,71.951,442.195C86.091,479.24,160.108,512.93,272.376,512.93z"/>
<path fill="#E9F0F4" d="M272.09,337.383c-116.983,0-211.816,40.691-211.816,83.486c0,2.156,0.241,25.291,0.713,27.402
	c0.116,1.514,0.201,3.452,0.201,5.861c0,41.215,10.806,95.669,23.113,140.75c20.305,74.375,69.062,144.5,192.238,144.5
	c112.691,0,150.742-46.046,179.82-128.688c12.161-34.563,27.325-156.562,27.325-172.403v-21
	C478.575,376.158,385.795,337.383,272.09,337.383z M434.302,480.042c-34.008,19.058-87.309,32.188-156.352,32.859
	c-0.031,0-0.062,0.001-0.093,0.001c-1.154,0.011-2.318,0.015-3.48,0.019c-0.584,0.002-1.165,0.009-1.75,0.009
	c-0.039,0-0.078-0.001-0.117-0.001c-0.045,0-0.089,0.001-0.134,0.001c-83.244,0-145.448-18.524-177.817-43.202
	c-16.061-11.949-25.212-25.685-25.212-40.3c0-46.117,91.011-83.502,203.279-83.502c112.268,0,203.279,37.385,203.279,83.502
	C475.906,448.459,460.396,465.999,434.302,480.042z"/>
<path id="word-coffee" sketch:type="MSShapeGroup" fill="#FFFFFF" fill-opacity="0.6" d="M215.899,426.227
	c2.96,4.05,10.368-9.298,10.368-9.298s6.005-17.489-1.537-18.017c-8.224-2.306-25.318,7.839-36.887,30.344
	c-14.138,34.618,11.635,39.192,21.772,37.129c7.553-2.648,9.467-2.582,9.467-2.582s4.197-15.851,22.089-27.8
	c19.046-7.315,17.148,8.685,17.148,8.685s7.78-0.944,16.016-13.288c8.058-12.356,10.228-22.585,10.228-22.585
	s5.7-17.12,15.271-15.053c2.577,3.391,0.424,11.069-3.089,15.904c-3.514,4.835-4.857,7.669-10.314,14.089
	c-5.523,6.416-12.211,28.925-12.211,28.925s20.219-16.228,23.544-23.825c3.282-7.601,6.993-21.413,6.993-21.413
	s7.154-17.589,12.24-19.325c5.066-1.737,7.79-0.192,7.717,2.912s3.322,11.896-19.329,36.99c-5.191,6.202-8.991,21.164-8.991,21.164
	l13.959-9.807c0,0,6.646-22.042,20.205-26.564c10.781,0.754,7.369,7.813,5.246,11.776c-2.139,3.963-12.223,10.31-12.223,10.31
	s-3.315,6.636,6.463,7.32c15.285-0.916,13.66-6.683,13.686-12.531c0.015-3.164,5.367-23.736,18.186-20.544
	c12.877,3.196-6.197,24.043-6.197,24.043s3.101,15.865,20.386,2.622c8.169-8.467,6.033-7.342,6.033-7.342
	s-9.257,24.59-29.274,18.536c-7.036-3.724-4.645-1.141-7.533-5.963c-3.752,4.357-16.496,14.709-25.395,12.845
	c-8.876-1.863-9.354-9.437-9.354-9.437s-4.242,0.319-13.908,10.863c-4.251,9.446-10.791,24.37-10.791,24.37
	s-5.426,13.598-12.743,3.651c-3.012-8.668,5.143-16.007,5.143-16.007l11.104-12.524l5.313-16.117
	c-13.313,15.558-20.555,15.052-29.512,36.608c-3.488,15.942-16.527,26.239-20.725,21.706c-4.164-4.53-5.937-15.277,18.958-33.874
	c4.619-7.978,8.043-21.288,8.043-21.288s-7.208,7.796-12.806,7.404c-0.794,9.386-26.189,44.202-37.214,19.066
	c-7.191,4.844-13.985,10.542-22.825,13.214c-14.313,4.288-30.297,1.933-35.309-15.602c-7.607-28.406,32.869-61.309,39.939-65.993
	c7.005-4.688,15.52-8.21,19.975-7.898c4.455,0.312,8.33,2.205,9.663,6.135c1.347,3.931,2.976,13.229-5.295,27.165
	c-8.457,13.923-16.794,10.378-17.517,10.327c-12.323-8.491,11.417-24.943,11.417-24.943S214.866,422.195,215.899,426.227
	L215.899,426.227z M305.516,420.736c-1.027-0.653,7.644-26.671,14.04-26.224S306.545,421.39,305.516,420.736L305.516,420.736z
	 M289.271,461.049c0.586,0.371-6.392,18.154-10.597,16.419C274.48,475.733,288.688,460.677,289.271,461.049L289.271,461.049z
	 M261.713,470.39c0.646,0.412-7.665,20.073-12.341,18.149C244.711,486.616,261.068,469.979,261.713,470.39L261.713,470.39z
	 M287.213,415.201c-0.625-0.399,5.026-16.281,8.991-16.004C300.17,399.475,287.838,415.6,287.213,415.201L287.213,415.201z
	 M237.8,461.381c3.693,1.718,8.344-1.866,15.105-12.658c-5.429-3.153-4.355-9.058-4.355-9.058S230.013,449.707,237.8,461.381
	L237.8,461.381z M323.781,429.206c-1.047-0.654,2.21-14.052,8.734-13.596C339.041,416.066,324.828,429.861,323.781,429.206
	L323.781,429.206z M353.74,428.818c-1.061-0.656-1.242-17.366,7.133-16.78S354.801,429.474,353.74,428.818L353.74,428.818z"/>
<path id="steamline-a" sketch:type="MSShapeGroup" fill="none" stroke="#979797" d="M176.781,309.625
	c0,0-47.992-34.172-47.992-63.906s40.516-58.344,40.516-81.125s-23.562-31.383-23.562-56.602s23.391-45.648,23.391-68.43"/>
<path id="steamline-b" sketch:type="MSShapeGroup" fill="none" stroke="#979797" d="M279.781,288.625
	c0,0-47.992-34.172-47.992-63.906s40.516-58.344,40.516-81.125s-23.562-31.383-23.562-56.602s23.391-45.648,23.391-68.43"/>
<path id="steamline-c" sketch:type="MSShapeGroup" fill="none" stroke="#979797" d="M386.781,322.625
	c0,0-47.992-34.172-47.992-63.906s40.516-58.344,40.516-81.125s-23.562-31.383-23.562-56.602s23.391-45.648,23.391-68.43"/>
</svg>
